<?xml version="1.0" encoding="utf-8"?>
<!-- Generator: Adobe Illustrator 23.1.0, SVG Export Plug-In . SVG Version: 6.00 Build 0)  -->
<svg version="1.1" id="Layer_1" xmlns="http://www.w3.org/2000/svg" xmlns:xlink="http://www.w3.org/1999/xlink" x="0px" y="0px"
	 viewBox="0 0 1749 1080" style="enable-background:new 0 0 1749 1080;" xml:space="preserve">
<style type="text/css">
	.st0{clip-path:url(#SVGID_4_);fill:url(#SVGID_5_);}
	.st1{clip-path:url(#SVGID_4_);fill:#F6C64F;}
	.st2{clip-path:url(#SVGID_4_);fill:#5DCA85;}
	.st3{clip-path:url(#SVGID_4_);fill:#51A8DC;}
</style>
<g>
	<g>
		<defs>
			<path id="SVGID_1_" d="M1723.1,1080l-1698.7-1.9c-8.5,0-15.5-7-15.5-15.5L10.2,15.8c0-8.5,7-15.5,15.5-15.5l1698.7,1.9
				c8.5,0,15.5,7,15.5,15.5l-1.2,1046.8C1738.6,1073.1,1731.6,1080,1723.1,1080z"/>
		</defs>
		<clipPath id="SVGID_2_">
			<use xlink:href="#SVGID_1_"  style="overflow:visible;"/>
		</clipPath>
	</g>
	<g>
		<defs>
			<path id="SVGID_3_" d="M1723.1,1080l-1698.7-1.9c-8.5,0-15.5-7-15.5-15.5L10.2,15.8c0-8.5,7-15.5,15.5-15.5l1698.7,1.9
				c8.5,0,15.5,7,15.5,15.5l-1.2,1046.8C1738.6,1073.1,1731.6,1080,1723.1,1080z"/>
		</defs>
		<clipPath id="SVGID_4_">
			<use xlink:href="#SVGID_3_"  style="overflow:visible;"/>
		</clipPath>
		<linearGradient id="SVGID_5_" gradientUnits="userSpaceOnUse" x1="8.9936" y1="540.1698" x2="1739.8148" y2="540.1698">
			<stop  offset="0" style="stop-color:#343F47"/>
			<stop  offset="1" style="stop-color:#485C67"/>
		</linearGradient>
		<path class="st0" d="M1723.1,1080l-1698.7-1.9c-8.5,0-15.5-7-15.5-15.5L10.2,15.8c0-8.5,7-15.5,15.5-15.5l1698.7,1.9
			c8.5,0,15.5,7,15.5,15.5l-1.2,1046.8C1738.6,1073.1,1731.6,1080,1723.1,1080z"/>
		<polygon class="st1" points="1486.9,-122.2 1506.4,414.6 1323,1113.8 2012,1186.9 1773,-8.4 		"/>
		<path class="st2" d="M1475.3-41.3c0,0,111.1,116.4,96.9,230.2s-101.3,625.6-101.3,625.6s-19,217.9-78.4,272.9
			c-59.4,55-303.6,21.1-303.6,21.1l145.8-652.9c156.5,35,267.3-460.9,110.8-495.8l12.6-56.2L1475.3-41.3z"/>
		<path class="st3" d="M1343.3-13.1c0,0,84.1,78.5-27.9,304.2s-286.2,602.5-386.6,701.2S783,1095.3,783,1095.3l305.9,13.2
			c0,0,67.7,6,129.7-157.4s170.2-489.4,170.2-489.4s85.7-184,79.4-307.6s-50.6-184-50.6-184L1343.3-13.1z"/>
	</g>
	<g>
		<defs>
			<path id="SVGID_6_" d="M1723.1,1080l-1698.7-1.9c-8.5,0-15.5-7-15.5-15.5L10.2,15.8c0-8.5,7-15.5,15.5-15.5l1698.7,1.9
				c8.5,0,15.5,7,15.5,15.5l-1.2,1046.8C1738.6,1073.1,1731.6,1080,1723.1,1080z"/>
		</defs>
		<clipPath id="SVGID_7_">
			<use xlink:href="#SVGID_6_"  style="overflow:visible;"/>
		</clipPath>
	</g>
</g>
</svg>
