<?xml version="1.0" encoding="utf-8"?>
<!-- Generator: Adobe Illustrator 23.1.0, SVG Export Plug-In . SVG Version: 6.00 Build 0)  -->
<svg version="1.1" id="Layer_1" xmlns="http://www.w3.org/2000/svg" xmlns:xlink="http://www.w3.org/1999/xlink" x="0px" y="0px"
	 viewBox="0 0 1197 201" style="enable-background:new 0 0 1197 201;" xml:space="preserve">
<style type="text/css">
	.st0{fill:#F9F9F9;}
	.st1{fill:#FEC501;}
	.st2{fill:#04D067;}
	.st3{fill:#02ACE7;}
</style>
<g id="bp5775.tif">
	<g>
		<path class="st0" d="M1107.6,187.3c1.6-6.3,4.9-12,7.3-18.1c2.7-6.6,5.5-13,8.4-19.5c0.8-1.8,0.8-3.4,0.1-5.3
			c-7.7-19.9-15.4-39.9-23-59.9c-0.8-2.1-1.7-2.9-4-2.8c-4.4,0.2-8.9,0.2-13.3,0c-2.8-0.2-3.3,0.9-3.2,3.4c0.1,21.6,0,43.1,0.1,64.7
			c0,3.4-0.8,4.3-4.2,4.2c-7.4-0.3-14.8-0.2-22.1,0c-3.2,0.1-4.1-0.8-4-4c0.1-21.3,0-42.6,0.2-63.9c0-3.3-0.7-4.6-4.1-4.2
			c-3.2,0.3-6.4-0.1-9.6,0.1c-2.8,0.2-4-0.4-3.9-3.6c0.3-5.3,0.2-10.7,0-16.1c-0.1-2.6,0.8-3.2,3.2-3.1c3.1,0.2,6.2-0.3,9.2,0.1
			c4.4,0.6,5.4-1.4,5.4-5.2c0.1-7.8,2.5-15,6.6-21.6c6.6-10.6,16.3-16.7,28.6-18.9c0.7-0.1,1.7,0.2,2-0.9c5.4,0,10.7,0,16.1,0
			c-0.1,7.9-0.4,15.8-0.4,23.7c0,2.4-0.7,3.5-3.2,3.3c-1.5-0.1-3-0.1-4.4,0c-9.4,0.6-15.3,6.8-15.6,16c-0.1,2.8,0.7,3.7,3.5,3.6
			c11.5-0.2,23-0.2,34.6-0.4c2.4,0,3.5,0.7,4.2,3c1.9,6.3,4.1,12.4,6.2,18.6c3.8,11.2,7.6,22.5,11.7,34.4c0.6-1.5,0.9-2.2,1.2-2.9
			c5.9-16.3,12-32.6,17.6-49c1.2-3.6,2.9-4.6,6.6-4.5c8.8,0.2,17.7,0,26.5,0c0,0.5,0,1.1,0,1.6c-1.4,0.7-1.4,2.2-1.8,3.3
			c-12.6,30.3-25,60.7-37.7,91c-4.6,10.9-8.6,22.1-13.9,32.7C1128.1,187.3,1117.9,187.3,1107.6,187.3z"/>
		<path class="st1" d="M5,39.3c3-6.7,8.3-8.9,15.5-8.8c31.1,0.2,62.2,0.1,93.4,0.1c10.2,0,14.3,4.2,14.3,14.4c0,31.6,0,63.3,0,94.9
			c0,9.5-4.2,13.8-13.6,13.8c-31.1,0-62.2-0.2-93.4,0.1c-7.3,0.1-12.8-1.6-16.2-8.3C5,110.1,5,74.7,5,39.3z M66.6,55.5
			c-6.2,0-12.3,0.1-18.5,0c-4.6-0.1-8.1,1.9-10.1,5.9c-1.8,3.5-3.6,7.2-4.9,10.9c-1.2,3.4-2.9,5.1-6.7,4.6c-1.8-0.2-4.3-0.8-4.8,2.2
			c-0.4,3,0.7,4.9,4,5.3c1.9,0.2,2.3,1.5,1.9,3.2c-2.8,12.1-1.6,24.5-1.8,36.8c0,1.6-0.2,3.6,1.7,4.1c4.8,1.2,10,1.7,14.6-0.1
			c3.5-1.4,1.3-5.5,1.9-8.4c0-0.1,0-0.3,0-0.4c-0.1-3.2,1.3-4.2,4.6-4.2c10.9,0.2,21.7,0.1,32.6,0.1c8.8,0,8.9,0,9.2,8.8
			c0.1,2.7,1.2,4.5,3.9,4.7c3.7,0.3,7.5,0.4,11.2-0.1c2.3-0.3,3.4-1.7,3.4-3.7c-0.2-12.6,1.3-25.2-1.8-37.6
			c-0.6-2.4,0.2-2.9,1.9-3.2c1.9-0.3,3.3-1,3.4-3.2c0.2-3.2-1.2-4.9-4.5-4.4c-4,0.6-6.2-0.9-7.3-4.9c-0.9-3.1-2.4-5.9-3.8-8.8
			c-2.5-5.2-6.4-7.9-12.4-7.7C78.5,55.7,72.5,55.5,66.6,55.5z"/>
		<path class="st0" d="M605.7,188.1c0-41.5,0.1-83.1-0.1-124.6c0-3.6,0.9-4.5,4.4-4.3c5.1,0.3,10.2,0.3,15.3,0
			c2.7-0.1,3.8,0.9,4.4,3.3c0.7,2.7,1.7,5.3,2.7,8.2c10.3-14,24.1-16.9,39.6-13.2c16.9,4.1,27.6,15.4,31.6,32
			c4.6,19,2.6,37.3-11,52.8c-11.4,13-31.4,17.9-47.5,11.7c-3.5-1.3-6.5-3.5-9.8-6.5c0,13.9,0,27.2,0,40.5
			C625.5,188.1,615.6,188.1,605.7,188.1z M674.2,106.2c0.2-5.5-0.8-11-3.6-16c-3.6-6.3-9-9.3-16.2-9.2c-7.1,0.1-12.6,3.1-15.7,9.3
			c-5.3,10.6-5.3,21.6,0.1,32c6.6,12.7,24.2,12.9,31.6,0.6C673.4,118,674.4,112.4,674.2,106.2z"/>
		<path class="st0" d="M1013.1,12.7c0.3,0.3,0.5,0.7,0.8,0.7c10,2.4,15.5,9.9,14.5,19.9c-0.9,8.5-8.5,15.4-17.2,15.6
			c-9.2,0.2-16.9-6-18.3-14.7c-1.6-9.8,3.6-17.8,13.4-20.7c0.5-0.2,1-0.2,1.2-0.8C1009.3,12.7,1011.2,12.7,1013.1,12.7z"/>
		<path class="st0" d="M1138.4,187.3c0.1,0.3,0.2,0.5,0.3,0.8c-10.5,0-20.9,0-31.4,0c0.1-0.3,0.2-0.5,0.3-0.8
			C1117.9,187.3,1128.1,187.3,1138.4,187.3z"/>
		<path class="st2" d="M201.3,153.6c-16.1,0-32.2,0-48.3,0c-8.7,0-13.1-4.5-13.1-13.1c0-32.2,0-64.3,0-96.5c0-9,4.5-13.5,13.7-13.5
			c31.9,0,63.8,0,95.8,0c9.3,0,13.8,4.5,13.8,13.8c0,31.9,0,63.8,0,95.7c0,9.2-4.5,13.6-13.6,13.6
			C233.4,153.7,217.3,153.6,201.3,153.6z M178.6,110.6c0,5.6,0,11.2,0,16.9c0,5.3,1.3,6.7,5.7,6.7c4.3,0,5.8-1.6,5.8-6.7
			c0-11.4,0.1-22.8,0-34.1c0-3.3,1-5.7,4.1-7.1c4-1.8,5.3-5,4.8-9.2c-0.8-8.1-1.6-16.2-2.3-24.4c-0.1-1.7-0.7-2.8-2.6-2.9
			c-2.1-0.1-2.3,1.2-2.3,2.9c-0.1,5.6-0.2,11.2-0.3,16.8c0,1.3,0.6,3.3-1.7,3.4c-2.2,0-1.8-1.9-1.9-3.3c-0.3-5.3-0.7-10.7-0.9-16
			c-0.1-2-0.2-3.9-2.9-3.8c-2.5,0.1-2.4,2-2.5,3.8c-0.3,5.3-0.6,10.7-1,16c-0.1,1.4,0.3,3.3-1.9,3.3c-2.3,0-1.2-2-1.2-3.1
			c-0.2-5.6-0.1-11.2-0.2-16.9c0-1.8-0.6-3.2-2.7-3.1c-1.9,0-2.5,1.2-2.6,2.9c-0.6,8.4-1.1,16.8-1.8,25.2c-0.3,3.8,1.1,6.5,4.4,8.3
			c3.1,1.6,4.2,4.2,4.2,7.6C178.5,99.4,178.6,105,178.6,110.6z M232.4,94.4c0-11.4,0-22.8,0-34.1c0-6.2-4.1-10.4-9.8-10.4
			c-5.3,0.1-9.3,4.4-9.4,10.4c-0.1,9.9,0,19.8,0,29.7c0,3.9,1.3,7.1,4.8,9c2.3,1.3,2.9,3.2,2.8,5.7c-0.1,7.6-0.1,15.3,0,22.9
			c0,5,1.4,6.6,5.8,6.6c4.6,0,5.8-1.3,5.8-6.5C232.4,116.6,232.4,105.5,232.4,94.4z"/>
		<path class="st3" d="M274.7,92c0-16.4,0-32.7,0-49.1c0-7.5,4.7-12.4,12.2-12.4c32.9-0.1,65.7-0.1,98.6,0c7.6,0,12.4,4.9,12.4,12.3
			c0,32.7,0,65.4,0,98.1c0,8.4-4.4,13-12.8,13c-32.5,0.1-64.9,0-97.4,0c-8.7,0-13-4.5-13-13.3C274.7,124.5,274.7,108.3,274.7,92z
			 M307.2,105.4c-4.8-0.5-7.1,1.9-8.2,4.7c-1.3,3.1,2.1,3.7,3.9,4.4c5.9,2.3,9.6,6.5,12,12.2c0.4,0.9,0.9,1.7,1.3,2.5
			c1.1,1.9,2.4,2,4.3,0.8c4.4-2.9,3.8-7,2.9-11.1c-0.8-3.4,0.3-5.5,3-7.5c3.9-2.9,7.5-6.1,11.2-9.1c3.7-3,4-2.9,6,1.2
			c4.2,8.8,8.4,17.6,12.6,26.4c0.7,1.5,1.1,3.6,3.3,3.6c2.4,0,7.2-6.9,6.6-9.4c-2.8-12.4-5.5-24.8-8.5-37.1
			c-0.7-2.8-0.2-4.7,1.9-6.7c5.3-5.1,10.6-10.3,15.7-15.6c4-4.2,3.2-9.7-1.5-12.2c-3.4-1.9-6.5-1-9.1,1.6
			c-5.4,5.4-10.8,10.8-16.2,16.2c-1.6,1.7-3.2,2.2-5.7,1.6c-12.6-3-25.3-5.8-37.9-8.5c-2.5-0.5-7.8,3.1-8.5,6
			c-0.9,3.3,2.4,3.4,4.2,4.3c8.3,4.1,16.6,8,25,11.9c4.8,2.3,4.9,2.5,1.5,6.7c-1.7,2.1-3.6,4-5.1,6.2
			C317.9,103.8,314,108.9,307.2,105.4z"/>
		<path class="st0" d="M409.2,92.4c0-19.4,0.1-38.9-0.1-58.3c0-2.8,0.7-3.6,3.5-3.6c26,0.1,52.1,0.1,78.1,0c3.1,0,3.8,0.9,3.7,3.9
			c-0.2,5.9-0.3,11.8,0,17.7c0.2,3.5-1.2,4.1-4.3,4.1c-15.3-0.2-30.6,0-45.9-0.1c-3,0-3.9,0.7-3.8,3.7c0.3,5.1,0.3,10.2,0,15.3
			c-0.2,3.2,1,3.7,3.9,3.7c12.9-0.2,25.8,0,38.6-0.1c2.8,0,3.6,0.7,3.6,3.5c-0.2,6.4-0.2,12.9,0,19.3c0.1,2.6-0.7,3.4-3.3,3.3
			c-12.9-0.1-25.8,0-38.6-0.1c-3,0-4.3,0.4-4.1,3.8c0.3,5.5,0.3,11,0,16.5c-0.2,3.2,1,3.7,3.9,3.7c15.4-0.1,30.9,0,46.3-0.1
			c3,0,4,0.6,3.8,3.7c-0.3,6.2-0.2,12.3,0,18.5c0.1,2.7-0.9,3.3-3.5,3.3c-26.2-0.1-52.3-0.1-78.5,0c-3,0-3.4-1.1-3.4-3.7
			C409.2,131,409.2,111.7,409.2,92.4z"/>
		<path class="st0" d="M773.3,113.7c-9.5,0-19.1,0.2-28.6-0.1c-3.8-0.1-4.1,1-3.2,4.3c3.5,12.8,14.2,18.9,26.9,15.1
			c3.7-1.1,6.8-3.2,8.6-6.7c0.8-1.5,1.7-2.2,3.4-2.1c7.6,0.1,15.3,0.1,22.9,0c2.8-0.1,2.6,1.1,2,3.1c-3.9,13.2-12.7,21.7-25.5,26.3
			c-22,8-47,1.5-60.1-15.6c-9.2-12.1-10.9-25.9-9-40.4c5.6-42.8,53.9-50.9,78.6-31.9c10.8,8.3,15.5,19.8,16.5,33
			c0.3,3.9,0,7.8,0.1,11.7c0.1,2.5-0.8,3.5-3.5,3.4C792.9,113.6,783.1,113.7,773.3,113.7z M758.6,94.7c4.7,0,9.4-0.3,14.1,0.1
			c3.9,0.3,4.2-1.4,3.5-4.4c-1.9-8.4-8.4-13.3-17.4-12.8c-8.7,0.4-15.9,6.8-17.1,14.8c-0.3,2.2,0.6,2.4,2.4,2.4
			C748.9,94.6,753.8,94.7,758.6,94.7z"/>
		<path class="st0" d="M840.1,71.4c11.6-14.7,27.6-19.2,43.8-12.4c12.2,5.1,18.4,14.9,18.7,27.6c0.6,21.4,0.1,42.9,0.2,64.3
			c0,2.5-0.9,2.8-3,2.8c-7.9-0.1-15.8-0.2-23.7,0c-2.9,0.1-3.5-0.9-3.5-3.6c0.1-15.7,0.1-31.4,0-47c0-3.7,0-7.5-1-11.2
			c-2-7.5-6.9-11-14.8-10.8c-7.2,0.3-12.2,4.7-13.6,11.9c-0.4,2.1-0.5,4.3-0.5,6.4c0,16.9-0.1,33.8,0,50.7c0,2.9-0.7,4-3.8,3.9
			c-7.6-0.2-15.3-0.2-22.9,0c-2.5,0-3.5-0.6-3.5-3.3c0.1-29.4,0.1-58.7,0-88.1c0-2.6,0.7-3.4,3.4-3.4c5.8,0.2,11.5,0.2,17.3,0
			c2.4-0.1,3.3,0.9,3.9,3C838,65.1,839,68,840.1,71.4z"/>
		<path class="st0" d="M922.4,122.9c1.7,0,3.5,0.1,5.2,0c4.8-0.4,8.2-0.3,9.7,6.1c1.8,7.5,14.4,9.9,20.3,4.9
			c4.1-3.5,3.4-10.2-1.4-13.4c-3.9-2.6-8.5-3.1-13-4c-6.6-1.4-13-2.9-19.1-5.8c-19.3-9.3-19.3-38-2.1-47.8
			c17.2-9.8,35.1-9.6,52.7-0.6c8.2,4.2,12.3,11.6,12.6,21c0.1,2.5-0.4,3.5-3.2,3.4c-7-0.2-14-0.1-20.9,0c-2,0-3.1-0.3-3.4-2.7
			c-0.5-3.8-3-6.1-6.8-7c-4.3-1-8.4-0.9-11.7,2.2c-3.7,3.6-2,10.1,3,12.2c4,1.6,8.4,1.7,12.6,2.5c6.6,1.3,12.9,3.2,19,6.2
			c19.4,9.5,17.9,38.8,2.1,48.8c-11.6,7.4-24.2,8.8-37.4,7.4c-9.1-1-17.6-3.7-24.1-10.6c-5.3-5.7-7.4-12.6-7.8-20.1
			c-0.1-2.2,0.8-2.7,2.8-2.6C915.2,123,918.8,122.9,922.4,122.9z"/>
		<path class="st0" d="M500.4,59.3c11.5,0,22.2,0,32.9,0c1.9,0,2.5,1.2,3.3,2.4c4.6,6.9,9.2,13.8,14.2,21.1
			c4.5-6.7,8.9-12.8,12.8-19.3c2-3.3,4.1-4.5,8-4.3c9.1,0.3,18.2,0.1,28,0.1c-1.6,2.3-2.9,4.1-4.2,5.9c-8.6,11.8-17.3,23.6-26,35.2
			c-1.5,2-1.3,3.2,0,5.1c10.6,14.8,21.2,29.7,31.7,44.5c0.7,1,1.8,1.9,2,3.9c-8.2,0-16.4-0.5-24.4,0.2c-6.9,0.6-11.1-1.7-14.5-7.6
			c-4.2-7.1-9.4-13.6-14.5-20.8c-5.4,7.7-10.9,14.9-15.7,22.5c-2.8,4.5-6.1,6.2-11.4,5.9c-8.4-0.5-16.9-0.1-25.3-0.1
			c-0.7-1.9,0.8-2.6,1.5-3.6c10.6-14.4,21.1-28.7,31.8-42.9c1.9-2.5,2.2-4.1,0.1-6.8C520.6,87.2,510.9,73.6,500.4,59.3z"/>
		<path class="st0" d="M995.7,106.4c0-14.6,0-29.2,0-43.8c0-2.5,0.4-3.5,3.3-3.5c7.9,0.2,15.8,0.2,23.7,0c2.4,0,3.2,0.6,3.2,3.1
			c-0.1,29.5-0.1,58.9,0,88.4c0,2.8-1,3.3-3.5,3.3c-7.6-0.1-15.3-0.2-22.9,0c-3,0.1-3.9-0.7-3.9-3.8
			C995.8,135.6,995.7,121,995.7,106.4z"/>
		<path class="st1" d="M67,84.5c-8.7,0-17.4-0.1-26.1,0.1c-2.9,0-3.5-1.1-2.7-3.6c1.5-4.3,3-8.6,4.5-12.8c1.2-3.3,3.5-4.8,7.1-4.7
			c11.4,0.1,22.8,0.1,34.2,0c3.4,0,5.7,1.5,6.8,4.5c1.6,4.5,3,9.1,4.7,13.6c1.1,2.7-0.2,3-2.3,3C84.4,84.5,75.7,84.5,67,84.5z"/>
		<path class="st1" d="M33.9,98.1c0.1-3.8,2.2-5.9,6-5.9c3.5,0,6.2,2.6,6.2,5.9c0,3.4-3.1,6.4-6.5,6.2
			C36.2,104.3,33.8,101.6,33.9,98.1z"/>
		<path class="st1" d="M87.8,97.8c0.2-3.8,2.4-5.8,6.3-5.6c3.6,0.2,5.5,2.5,5.3,6.1c-0.2,3.5-2.9,6.2-6.1,6.1
			C90,104.2,87.6,101.3,87.8,97.8z"/>
	</g>
</g>
</svg>
