<?xml version="1.0" encoding="utf-8"?>
<!-- Generator: Adobe Illustrator 23.1.0, SVG Export Plug-In . SVG Version: 6.00 Build 0)  -->
<svg version="1.1" id="Layer_1" xmlns="http://www.w3.org/2000/svg" xmlns:xlink="http://www.w3.org/1999/xlink" x="0px" y="0px"
	 viewBox="0 0 900 900" style="enable-background:new 0 0 900 900;" xml:space="preserve">
<style type="text/css">
	.st0{fill:#FEC400;}
	.st1{fill:#01CF65;}
	.st2{fill:#00ABE7;}
	.st3{fill:#2E3E49;}
</style>
<g id="ugt9fc.tif">
	<g>
		<path class="st0" d="M39,677.9c0-152.3,0-304.6,0-456.9c2-0.9,1.2-2.7,1.4-4.2c0.8-10.4,2.1-20.8,4-31.1
			c14.5-77.9,73.4-133.2,152.1-142.9c9.5-1.2,19.3-0.5,28.6-3.8c154.1,0,308.3,0,462.4,0c4.7,2.7,10,1.9,15,2.6
			c40,6.2,75,22.6,104.3,50.7c-25.2,25.6-50.5,51.1-75.7,76.7c-18.5-17.4-40.3-27.3-65.7-27.3c-144.1-0.2-288.1-0.3-432.2,0
			c-51.4,0.1-91.6,41.8-91.6,93.2c0,141.5,0.2,283.1-0.2,424.6c-0.1,27.6,8.1,51.3,26.6,71.5c-1.7,1.8-3.4,3.7-5.1,5.5
			c-23.3,23.4-46.6,46.7-69.9,70.1c-4.1-2.2-6.8-5.9-9.8-9.3c-23-26.6-34.7-58.1-40.2-92.4C41.5,696,42.2,686.7,39,677.9z"/>
		<path class="st1" d="M731.2,731c13.2-14.4,22.3-30.9,25.3-50.4c1-6.5,1.3-13.1,1.3-19.7c0.1-139.5-0.1-279,0.2-418.5
			c0.1-28.1-7.5-52.8-27-73.4c25.2-25.6,50.5-51.1,75.7-76.7c23.6,21.7,37.2,49,44.8,79.6c5.8,23.3,8.2,47.1,8.2,71.1
			c0.1,145.8,0.5,291.6-0.2,437.4c-0.2,49-18.5,91.8-53,127.1C781.4,782,756.3,756.5,731.2,731z"/>
		<path class="st2" d="M731.2,731c25.1,25.5,50.2,51,75.3,76.4c-24.7,25.4-55.2,39.7-89.3,46.8c-34.4,7.1-69.3,6.4-104.2,6
			c-2.7,0-5.5-0.2-8.2-0.2c-108.5,0-217,0.2-325.6-0.1c-27.8-0.1-55.6,1.5-83.3-2.8c-38.6-6-72.5-21.9-101.5-48.3
			c-0.7-0.6-1.1-1.4-1.6-2.2c23.3-23.4,46.6-46.7,69.9-70.1c1.8-1.8,3.4-3.6,5.1-5.5c20.4,19.7,44.9,27.7,73.2,27.6
			c138.3-0.4,276.6-0.4,414.8,0C684.9,758.9,710.2,751.2,731.2,731z"/>
		<path class="st3" d="M308.7,450.2c0-65.9,0.1-131.8-0.1-197.6c0-5.7,1.4-7.1,7.1-7.1c89.4,0.2,178.7,0.2,268.1,0
			c5.3,0,6.8,1.2,6.7,6.6c-0.3,23.7-0.3,47.4,0,71.1c0.1,5.6-1.8,6.6-6.9,6.6c-54.7-0.2-109.4,0-164.1-0.3c-6.2,0-7.5,1.7-7.4,7.6
			c0.4,20.5,0.3,41,0,61.5c-0.1,5.1,1.3,6.4,6.4,6.4c45.6-0.2,91.2,0,136.8-0.3c6.8-0.1,8.2,2,8,8.3c-0.4,23.7-0.4,47.4,0,71.1
			c0.1,5.9-1.7,7.1-7.2,7c-45.6-0.2-91.2,0-136.8-0.3c-5.5,0-7.3,1.1-7.2,7c0.4,21.6,0.5,43.3,0,65c-0.2,6.5,2.2,7.2,7.7,7.2
			c54.3-0.2,108.5,0,162.8-0.2c5.9,0,8.1,1,8,7.6c-0.5,23.9-0.3,47.9-0.1,71.8c0,4-0.7,5.4-5.1,5.4c-90.5-0.1-181-0.2-271.5,0
			c-6.1,0-5.1-3.4-5.1-6.9C308.7,581.9,308.7,516.1,308.7,450.2z"/>
	</g>
</g>
</svg>
