<?xml version="1.0" encoding="utf-8"?>
<!-- Generator: Adobe Illustrator 23.1.0, SVG Export Plug-In . SVG Version: 6.00 Build 0)  -->
<svg version="1.1" id="Layer_1" xmlns="http://www.w3.org/2000/svg" xmlns:xlink="http://www.w3.org/1999/xlink" x="0px" y="0px"
	 viewBox="0 0 1015.8 201" style="enable-background:new 0 0 1015.8 201;" xml:space="preserve">
<style type="text/css">
	.st0{fill:#FEC501;}
	.st1{fill:#04D067;}
	.st2{fill:#02ACE7;}
	.st3{fill:#F9F9F9;}
	.st4{font-family:'AvenirNext-Bold';}
	.st5{font-size:173.146px;}
</style>
<g id="bp5775.tif">
	<g>
		<path class="st0" d="M5,39.3c3-6.7,8.3-8.9,15.5-8.8c31.1,0.2,62.2,0.1,93.4,0.1c10.2,0,14.3,4.2,14.3,14.4c0,31.6,0,63.3,0,94.9
			c0,9.5-4.2,13.8-13.6,13.8c-31.1,0-62.2-0.2-93.4,0.1c-7.3,0.1-12.8-1.6-16.2-8.3C5,110.1,5,74.7,5,39.3z M66.6,55.5
			c-6.2,0-12.3,0.1-18.5,0c-4.6-0.1-8.1,1.9-10.1,5.9c-1.8,3.5-3.6,7.2-4.9,10.9c-1.2,3.4-2.9,5.1-6.7,4.6c-1.8-0.2-4.3-0.8-4.8,2.2
			c-0.4,3,0.7,4.9,4,5.3c1.9,0.2,2.3,1.5,1.9,3.2c-2.8,12.1-1.6,24.5-1.8,36.8c0,1.6-0.2,3.6,1.7,4.1c4.8,1.2,10,1.7,14.6-0.1
			c3.5-1.4,1.3-5.5,1.9-8.4c0-0.1,0-0.3,0-0.4c-0.1-3.2,1.3-4.2,4.6-4.2c10.9,0.2,21.7,0.1,32.6,0.1c8.8,0,8.9,0,9.2,8.8
			c0.1,2.7,1.2,4.5,3.9,4.7c3.7,0.3,7.5,0.4,11.2-0.1c2.3-0.3,3.4-1.7,3.4-3.7c-0.2-12.6,1.3-25.2-1.8-37.6
			c-0.6-2.4,0.2-2.9,1.9-3.2c1.9-0.3,3.3-1,3.4-3.2c0.2-3.2-1.2-4.9-4.5-4.4c-4,0.6-6.2-0.9-7.3-4.9c-0.9-3.1-2.4-5.9-3.8-8.8
			c-2.5-5.2-6.4-7.9-12.4-7.7C78.5,55.7,72.5,55.5,66.6,55.5z"/>
		<path class="st1" d="M201.3,153.6c-16.1,0-32.2,0-48.3,0c-8.7,0-13.1-4.5-13.1-13.1c0-32.2,0-64.3,0-96.5c0-9,4.5-13.5,13.7-13.5
			c31.9,0,63.8,0,95.8,0c9.3,0,13.8,4.5,13.8,13.8c0,31.9,0,63.8,0,95.7c0,9.2-4.5,13.6-13.6,13.6
			C233.4,153.7,217.3,153.6,201.3,153.6z M178.6,110.6c0,5.6,0,11.2,0,16.9c0,5.3,1.3,6.7,5.7,6.7c4.3,0,5.8-1.6,5.8-6.7
			c0-11.4,0.1-22.8,0-34.1c0-3.3,1-5.7,4.1-7.1c4-1.8,5.3-5,4.8-9.2c-0.8-8.1-1.6-16.2-2.3-24.4c-0.1-1.7-0.7-2.8-2.6-2.9
			c-2.1-0.1-2.3,1.2-2.3,2.9c-0.1,5.6-0.2,11.2-0.3,16.8c0,1.3,0.6,3.3-1.7,3.4c-2.2,0-1.8-1.9-1.9-3.3c-0.3-5.3-0.7-10.7-0.9-16
			c-0.1-2-0.2-3.9-2.9-3.8c-2.5,0.1-2.4,2-2.5,3.8c-0.3,5.3-0.6,10.7-1,16c-0.1,1.4,0.3,3.3-1.9,3.3c-2.3,0-1.2-2-1.2-3.1
			c-0.2-5.6-0.1-11.2-0.2-16.9c0-1.8-0.6-3.2-2.7-3.1c-1.9,0-2.5,1.2-2.6,2.9c-0.6,8.4-1.1,16.8-1.8,25.2c-0.3,3.8,1.1,6.5,4.4,8.3
			c3.1,1.6,4.2,4.2,4.2,7.6C178.5,99.4,178.6,105,178.6,110.6z M232.4,94.4c0-11.4,0-22.8,0-34.1c0-6.2-4.1-10.4-9.8-10.4
			c-5.3,0.1-9.3,4.4-9.4,10.4c-0.1,9.9,0,19.8,0,29.7c0,3.9,1.3,7.1,4.8,9c2.3,1.3,2.9,3.2,2.8,5.7c-0.1,7.6-0.1,15.3,0,22.9
			c0,5,1.4,6.6,5.8,6.6c4.6,0,5.8-1.3,5.8-6.5C232.4,116.6,232.4,105.5,232.4,94.4z"/>
		<path class="st2" d="M274.7,92c0-16.4,0-32.7,0-49.1c0-7.5,4.7-12.4,12.2-12.4c32.9-0.1,65.7-0.1,98.6,0c7.6,0,12.4,4.9,12.4,12.3
			c0,32.7,0,65.4,0,98.1c0,8.4-4.4,13-12.8,13c-32.5,0.1-64.9,0-97.4,0c-8.7,0-13-4.5-13-13.3C274.7,124.5,274.7,108.3,274.7,92z
			 M307.2,105.4c-4.8-0.5-7.1,1.9-8.2,4.7c-1.3,3.1,2.1,3.7,3.9,4.4c5.9,2.3,9.6,6.5,12,12.2c0.4,0.9,0.9,1.7,1.3,2.5
			c1.1,1.9,2.4,2,4.3,0.8c4.4-2.9,3.8-7,2.9-11.1c-0.8-3.4,0.3-5.5,3-7.5c3.9-2.9,7.5-6.1,11.2-9.1s4-2.9,6,1.2
			c4.2,8.8,8.4,17.6,12.6,26.4c0.7,1.5,1.1,3.6,3.3,3.6c2.4,0,7.2-6.9,6.6-9.4c-2.8-12.4-5.5-24.8-8.5-37.1
			c-0.7-2.8-0.2-4.7,1.9-6.7c5.3-5.1,10.6-10.3,15.7-15.6c4-4.2,3.2-9.7-1.5-12.2c-3.4-1.9-6.5-1-9.1,1.6
			c-5.4,5.4-10.8,10.8-16.2,16.2c-1.6,1.7-3.2,2.2-5.7,1.6c-12.6-3-25.3-5.8-37.9-8.5c-2.5-0.5-7.8,3.1-8.5,6
			c-0.9,3.3,2.4,3.4,4.2,4.3c8.3,4.1,16.6,8,25,11.9c4.8,2.3,4.9,2.5,1.5,6.7c-1.7,2.1-3.6,4-5.1,6.2
			C317.9,103.8,314,108.9,307.2,105.4z"/>
		<path class="st0" d="M67,84.5c-8.7,0-17.4-0.1-26.1,0.1c-2.9,0-3.5-1.1-2.7-3.6c1.5-4.3,3-8.6,4.5-12.8c1.2-3.3,3.5-4.8,7.1-4.7
			c11.4,0.1,22.8,0.1,34.2,0c3.4,0,5.7,1.5,6.8,4.5c1.6,4.5,3,9.1,4.7,13.6c1.1,2.7-0.2,3-2.3,3C84.4,84.5,75.7,84.5,67,84.5z"/>
		<path class="st0" d="M33.9,98.1c0.1-3.8,2.2-5.9,6-5.9c3.5,0,6.2,2.6,6.2,5.9c0,3.4-3.1,6.4-6.5,6.2
			C36.2,104.3,33.8,101.6,33.9,98.1z"/>
		<path class="st0" d="M87.8,97.8c0.2-3.8,2.4-5.8,6.3-5.6c3.6,0.2,5.5,2.5,5.3,6.1c-0.2,3.5-2.9,6.2-6.1,6.1
			C90,104.2,87.6,101.3,87.8,97.8z"/>
	</g>
</g>
<text transform="matrix(1 0 0 1 406.7114 153.6444)" class="st3 st4 st5">Rafitify</text>
</svg>
